<?xml version="1.0" encoding="UTF-8" standalone="no" ?>
<!DOCTYPE svg PUBLIC "-//W3C//DTD SVG 1.1//EN" "http://www.w3.org/Graphics/SVG/1.1/DTD/svg11.dtd">
<svg xmlns="http://www.w3.org/2000/svg" xmlns:xlink="http://www.w3.org/1999/xlink" version="1.1" width="354.33070866141736px" height="354.33070866141736px" viewBox="0 0 354.33070866141736 354.33070866141736" xml:space="preserve">
<desc>Created with Fabric.js 6.0.0-beta12</desc>
<defs>
</defs>
<g transform="matrix(1 0 0 1 177.6654 177.6654)" id="WorkSpaceDrawType"  >
<rect style="stroke: rgb(255,255,255); stroke-width: 1; stroke-dasharray: none; stroke-linecap: butt; stroke-dashoffset: 0; stroke-linejoin: miter; stroke-miterlimit: 4; fill: none; fill-rule: nonzero; opacity: 1;"  x="-177.16535433070868" y="-177.16535433070868" rx="0" ry="0" width="354.33070866141736" height="354.33070866141736" />
</g>
<g transform="matrix(2.7116 0 0 2.7116 177.6654 177.6654)" id="N1mmNupYsE"  >
<path style="stroke: none; stroke-width: 1; stroke-dasharray: none; stroke-linecap: butt; stroke-dashoffset: 0; stroke-linejoin: miter; stroke-miterlimit: 4; fill: rgb(255,94,23); fill-rule: nonzero; opacity: 1;"  transform=" translate(-55.74, 34.8)" d="M 53.28 -69.6 L 28.32 0.48 Q 24.72 10.68 21.54 16.92 Q 18.36 23.16 14.28 25.98 Q 10.2 28.8 3.84 28.8 L 3.84 28.8 Q 1.2 28.8 -1.44 28.38 Q -4.08 27.96 -7.08 26.88 L -7.08 26.88 L -5.4 16.56 Q -3.24 17.16 -1.2 17.58 Q 0.84 18 3 18 L 3 18 Q 7.08 18 9.84 15 Q 12.6 12 14.04 7.32 L 14.04 7.32 L 6.12 -69.6 L 18 -69.6 L 21.24 -24.48 Q 21.48 -20.88 21.66 -17.28 Q 21.84 -13.68 21.96 -10.08 L 21.96 -10.08 Q 23.16 -13.68 24.3 -17.28 Q 25.44 -20.88 26.64 -24.48 L 26.64 -24.48 L 41.28 -69.6 L 53.28 -69.6 Z M 54.12 -59.04 L 55.68 -69.6 L 63.72 -69.6 L 64.32 -73.8 Q 65.64 -83.4 68.52 -88.74 Q 71.4 -94.08 75.42 -96.24 Q 79.44 -98.4 84.24 -98.4 L 84.24 -98.4 Q 88.2 -98.4 90.84 -97.56 L 90.84 -97.56 L 89.28 -86.88 Q 88.32 -87.12 87.06 -87.36 Q 85.8 -87.6 84.72 -87.6 L 84.72 -87.6 Q 79.68 -87.6 78 -82.86 Q 76.32 -78.12 75.12 -69.6 L 75.12 -69.6 L 88.56 -69.6 L 87 -59.04 L 73.68 -59.04 L 65.28 3.6 L 53.64 3.6 L 62.28 -59.04 L 54.12 -59.04 Z M 85.68 -17.64 L 85.68 -17.64 L 92.16 -59.04 L 84.36 -59.04 L 85.92 -69.6 L 93.84 -69.6 L 96.96 -89.76 L 108 -89.76 L 105 -69.6 L 118.56 -69.6 L 117 -59.04 L 103.32 -59.04 L 97.32 -18.96 Q 96.36 -12.36 97.26 -9.18 Q 98.16 -6 101.52 -6 L 101.52 -6 Q 104.4 -6 107.64 -8.28 L 107.64 -8.28 L 111.36 1.56 Q 107.64 3.24 103.62 4.2 Q 99.6 5.16 95.88 4.68 Q 92.16 4.2 89.46 1.86 Q 86.76 -0.48 85.62 -5.22 Q 84.48 -9.96 85.68 -17.64 Z" stroke-linecap="round" />
</g>
</svg>